<svg width="24" height="24" viewBox="0 0 24 24" fill="none" xmlns="http://www.w3.org/2000/svg">
<path d="M22.4225 9.11812C22.3287 8.82986 22.1517 8.5758 21.9138 8.38795C21.6759 8.2001 21.3877 8.08686 21.0856 8.06249L15.5543 7.61624L13.4187 2.45155C13.3032 2.17013 13.1066 1.92941 12.854 1.76C12.6013 1.59058 12.304 1.50012 11.9998 1.50012C11.6956 1.50012 11.3983 1.59058 11.1456 1.76C10.893 1.92941 10.6964 2.17013 10.5809 2.45155L8.44714 7.61531L2.91308 8.06249C2.61043 8.08809 2.32207 8.20243 2.08412 8.39119C1.84617 8.57994 1.66921 8.83472 1.57542 9.12361C1.48163 9.41249 1.47517 9.72263 1.55686 10.0152C1.63855 10.3077 1.80475 10.5696 2.03464 10.7681L6.25339 14.4084L4.96808 19.8516C4.8962 20.1473 4.9138 20.4577 5.01865 20.7434C5.1235 21.0291 5.31087 21.2771 5.55698 21.4562C5.80309 21.6352 6.09684 21.737 6.40093 21.7488C6.70503 21.7605 7.00576 21.6817 7.26496 21.5222L11.9993 18.6084L16.7365 21.5222C16.9958 21.6798 17.2959 21.7571 17.5991 21.7445C17.9022 21.7318 18.1949 21.6298 18.4401 21.4512C18.6854 21.2726 18.8724 21.0254 18.9774 20.7407C19.0825 20.4561 19.101 20.1467 19.0306 19.8516L17.7406 14.4075L21.9593 10.7672C22.1911 10.569 22.3588 10.3065 22.4412 10.013C22.5237 9.71939 22.5172 9.40796 22.4225 9.11812ZM20.9843 9.63093L16.4187 13.5684C16.3146 13.6582 16.2371 13.7748 16.1948 13.9056C16.1525 14.0364 16.1469 14.1763 16.1787 14.31L17.5737 20.1975C17.5773 20.2056 17.5777 20.2148 17.5747 20.2232C17.5717 20.2315 17.5657 20.2385 17.5578 20.2425C17.5409 20.2556 17.5362 20.2528 17.5221 20.2425L12.3921 17.0878C12.274 17.0152 12.138 16.9767 11.9993 16.9767C11.8606 16.9767 11.7247 17.0152 11.6065 17.0878L6.47652 20.2444C6.46246 20.2528 6.45871 20.2556 6.44089 20.2444C6.43298 20.2403 6.42692 20.2334 6.42395 20.225C6.42099 20.2167 6.42135 20.2075 6.42496 20.1994L7.81996 14.3119C7.85175 14.1781 7.84618 14.0382 7.80385 13.9075C7.76153 13.7767 7.68407 13.66 7.57996 13.5703L3.01433 9.6328C3.00308 9.62343 2.99277 9.61499 3.00214 9.58593C3.01152 9.55687 3.01902 9.56062 3.03308 9.55874L9.02558 9.07499C9.16303 9.0632 9.29456 9.01373 9.40571 8.93203C9.51686 8.85032 9.60332 8.73954 9.65558 8.61187L11.9637 3.02343C11.9712 3.00749 11.974 2.99999 11.9965 2.99999C12.019 2.99999 12.0218 3.00749 12.0293 3.02343L14.3431 8.61187C14.3958 8.73958 14.4828 8.85025 14.5945 8.93164C14.7062 9.01303 14.8382 9.06199 14.9759 9.07312L20.9684 9.55687C20.9825 9.55687 20.9909 9.55687 20.9993 9.58405C21.0078 9.61124 20.9993 9.62156 20.9843 9.63093Z" fill="#37437D"/>
</svg>
